<?xml version="1.0" encoding="UTF-8" standalone="no"?>
<!-- Created with Inkscape (http://www.inkscape.org/) -->

<svg
   xmlns:dc="http://purl.org/dc/elements/1.1/"
   xmlns:cc="http://creativecommons.org/ns#"
   xmlns:rdf="http://www.w3.org/1999/02/22-rdf-syntax-ns#"
   xmlns:svg="http://www.w3.org/2000/svg"
   xmlns="http://www.w3.org/2000/svg"
   xmlns:sodipodi="http://sodipodi.sourceforge.net/DTD/sodipodi-0.dtd"
   xmlns:inkscape="http://www.inkscape.org/namespaces/inkscape"
   width="62.081543mm"
   height="17.407694mm"
   viewBox="0 0 219.97397 61.680805"
   id="svg2"
   version="1.1"
   inkscape:version="0.91 r13725"
   sodipodi:docname="Logo.svg"
   inkscape:export-filename="D:\Sara\Documents\Spring 2017\Mobile Apps\cs4261\src\assets\img\logo.png"
   inkscape:export-xdpi="90"
   inkscape:export-ydpi="90">
  <defs
     id="defs4" />
  <sodipodi:namedview
     id="base"
     pagecolor="#ffffff"
     bordercolor="#666666"
     borderopacity="1.0"
     inkscape:pageopacity="0.0"
     inkscape:pageshadow="2"
     inkscape:zoom="1.4778489"
     inkscape:cx="80.49626"
     inkscape:cy="2.5354511"
     inkscape:document-units="px"
     inkscape:current-layer="g4514"
     showgrid="false"
     inkscape:window-width="1920"
     inkscape:window-height="1017"
     inkscape:window-x="-8"
     inkscape:window-y="-8"
     inkscape:window-maximized="1"
     fit-margin-top="0"
     fit-margin-left="0"
     fit-margin-right="0"
     fit-margin-bottom="0" />
  <metadata
     id="metadata7">
    <rdf:RDF>
      <cc:Work
         rdf:about="">
        <dc:format>image/svg+xml</dc:format>
        <dc:type
           rdf:resource="http://purl.org/dc/dcmitype/StillImage" />
        <dc:title></dc:title>
      </cc:Work>
    </rdf:RDF>
  </metadata>
  <g
     inkscape:label="Layer 1"
     inkscape:groupmode="layer"
     id="layer1"
     transform="translate(-193.87041,-223.91959)">
    <flowRoot
       xml:space="preserve"
       id="flowRoot3336"
       style="font-style:normal;font-variant:normal;font-weight:normal;font-stretch:normal;font-size:40px;line-height:125%;font-family:Pacifico;-inkscape-font-specification:Pacifico;letter-spacing:0px;word-spacing:0px;fill:#000000;fill-opacity:1;stroke:none;stroke-width:1px;stroke-linecap:butt;stroke-linejoin:miter;stroke-opacity:1"><flowRegion
         id="flowRegion3338"><rect
           id="rect3340"
           width="897.14288"
           height="394.28571"
           x="57.142857"
           y="312.36221"
           style="font-style:normal;font-variant:normal;font-weight:normal;font-stretch:normal;font-family:Pacifico;-inkscape-font-specification:Pacifico" /></flowRegion><flowPara
         id="flowPara3342" /></flowRoot>    <g
       id="g4514"
       transform="translate(41.428571,35.714286)">
      <g
         inkscape:export-ydpi="90"
         inkscape:export-xdpi="90"
         transform="matrix(0.1139502,0,0,0.11585077,152.44184,186.48724)"
         id="g4268"
         style="fill:#c88495;fill-opacity:1">
        <g
           id="g4228"
           style="fill:#c88495;fill-opacity:1">
          <path
             style="fill:#c88495;fill-opacity:1"
             inkscape:connector-curvature="0"
             d="M 473.6,92.43 C 464.9,81.83 451.7,75.93 438,75.93 l -297.3,0 c -8.5,0 -16.6,2.4 -23.6,6.7 L 101.9,29.53 C 99.4,20.83 91.5,14.83 82.5,14.83 l -23.1,0 -44.1,0 C 6.9,14.83 0,21.63 0,30.13 l 0,1.6 c 0,8.4 6.8,15.3 15.3,15.3 l 57.8,0 29.5,104.3 40.6,143.9 c -23.1,5.8 -40.2,26.7 -40.2,51.5 0,28.1 21.9,51.2 49.6,53 -2.3,6.6 -3.4,13.9 -2.8,21.4 2,25.4 22.7,45.9 48.1,47.6 30.3,2.1 55.6,-22 55.6,-51.8 0,-6 -1,-11.7 -2.9,-17.1 l 60.8,0 c -2.5,7.1 -3.5,15 -2.6,23.1 2.8,24.6 23.1,44 47.9,45.8 30.3,2.1 55.7,-21.9 55.7,-51.8 0,-28.9 -24,-52 -52.8,-52 l -203.1,0 c -9.9,0 -18.3,-7.7 -18.7,-17.5 -0.4,-10.4 7.9,-18.9 18.2,-18.9 l 30.5,0 165.3,0 46.5,0 c 20.6,0 38.6,-14.1 43.6,-34.1 l 40.4,-162.6 c 3.5,-14 0.3,-28.3 -8.7,-39.4 z m -113.1,307.3 c 9.4,0 17.1,7.7 17.1,17.1 0,9.4 -7.7,17.1 -17.1,17.1 -9.4,0 -17.1,-7.7 -17.1,-17.1 0,-9.4 7.6,-17.1 17.1,-17.1 z m -158.9,0 c 9.4,0 17.1,7.7 17.1,17.1 0,9.4 -7.7,17.1 -17.1,17.1 -9.4,0 -17.1,-7.7 -17.1,-17.1 0,-9.4 7.6,-17.1 17.1,-17.1 z m -62.8,-248.6 -7.8,-27.5 c -1.2,-4.2 0.5,-7.3 1.7,-8.8 1.1,-1.5 3.7,-4 8,-4 l 32.6,0 8.9,40.4 -43.4,0 0,-0.1 z m 9.8,34.8 41.2,0 8.2,37.4 -38.9,0 -10.5,-37.4 z m 37.9,107.6 c -4.5,0 -8.5,-3 -9.7,-7.4 l -7.9,-28 36.7,0 7.8,35.3 -26.9,0 0,0.1 z m 87.1,0 -24.6,0 -7.8,-35.3 32.3,0 0,35.3 0.1,0 z m 0,-70.2 -40,0 -8.2,-37.4 48.2,0 0,37.4 z m 0,-72.2 -55.8,0 -8.9,-40.4 64.7,0 0,40.4 z m 62.4,142.4 -27.5,0 0,-35.3 34.9,0 -7.4,35.3 z m 14.8,-70.2 -42.3,0 0,-37.4 50.2,0 -7.9,37.4 z m -42.3,-72.2 0,-40.4 66,0 -8.5,40.4 -57.5,0 z m 99.7,134.8 c -1.1,4.5 -5.1,7.7 -9.8,7.7 l -26.8,0 7.5,-35.3 36,0 -6.9,27.6 z m 15.5,-62.6 -37.3,0 7.9,-37.4 38.7,0 -9.3,37.4 z m 24.8,-100.1 -6.9,27.8 -40,0 8.5,-40.4 28.6,0 c 4.3,0 6.8,2.4 7.9,3.9 1.2,1.5 3,4.6 1.9,8.7 z"
             id="path4230" />
        </g>
        <g
           id="g4232"
           style="fill:#c88495;fill-opacity:1" />
        <g
           id="g4234"
           style="fill:#c88495;fill-opacity:1" />
        <g
           id="g4236"
           style="fill:#c88495;fill-opacity:1" />
        <g
           id="g4238"
           style="fill:#c88495;fill-opacity:1" />
        <g
           id="g4240"
           style="fill:#c88495;fill-opacity:1" />
        <g
           id="g4242"
           style="fill:#c88495;fill-opacity:1" />
        <g
           id="g4244"
           style="fill:#c88495;fill-opacity:1" />
        <g
           id="g4246"
           style="fill:#c88495;fill-opacity:1" />
        <g
           id="g4248"
           style="fill:#c88495;fill-opacity:1" />
        <g
           id="g4250"
           style="fill:#c88495;fill-opacity:1" />
        <g
           id="g4252"
           style="fill:#c88495;fill-opacity:1" />
        <g
           id="g4254"
           style="fill:#c88495;fill-opacity:1" />
        <g
           id="g4256"
           style="fill:#c88495;fill-opacity:1" />
        <g
           id="g4258"
           style="fill:#c88495;fill-opacity:1" />
        <g
           id="g4260"
           style="fill:#c88495;fill-opacity:1" />
      </g>
      <text
         xml:space="preserve"
         style="font-style:normal;font-weight:normal;font-size:40px;line-height:125%;font-family:sans-serif;letter-spacing:0px;word-spacing:0px;fill:#323135;fill-opacity:1;stroke:none;stroke-width:1px;stroke-linecap:butt;stroke-linejoin:miter;stroke-opacity:1"
         x="183.57143"
         y="231.60611"
         id="text4168"
         sodipodi:linespacing="125%"><tspan
           sodipodi:role="line"
           x="183.57143"
           y="231.60611"
           id="tspan4170"><tspan
             x="183.57143"
             y="231.60611"
             style="font-style:normal;font-variant:normal;font-weight:normal;font-stretch:normal;font-family:Pacifico;-inkscape-font-specification:Pacifico;fill:#323135;fill-opacity:1"
             id="tspan4172">Shop &amp; Go</tspan></tspan></text>
    </g>
  </g>
</svg>
