<?xml version="1.0" encoding="UTF-8" standalone="no"?>
<!-- Generator: Adobe Illustrator 19.0.0, SVG Export Plug-In . SVG Version: 6.00 Build 0)  -->

<svg
   xmlns:dc="http://purl.org/dc/elements/1.1/"
   xmlns:cc="http://creativecommons.org/ns#"
   xmlns:rdf="http://www.w3.org/1999/02/22-rdf-syntax-ns#"
   xmlns:svg="http://www.w3.org/2000/svg"
   xmlns="http://www.w3.org/2000/svg"
   xmlns:sodipodi="http://sodipodi.sourceforge.net/DTD/sodipodi-0.dtd"
   xmlns:inkscape="http://www.inkscape.org/namespaces/inkscape"
   version="1.1"
   id="Capa_1"
   x="0px"
   y="0px"
   viewBox="0 0 4.8340906 4.8339832"
   xml:space="preserve"
   width="45.000988"
   height="44.999989"
   inkscape:version="0.91 r13725"
   sodipodi:docname="user.svg"><metadata
     id="metadata39"><rdf:RDF><cc:Work
         rdf:about=""><dc:format>image/svg+xml</dc:format><dc:type
           rdf:resource="http://purl.org/dc/dcmitype/StillImage" /><dc:title></dc:title></cc:Work></rdf:RDF></metadata><defs
     id="defs37" /><sodipodi:namedview
     pagecolor="#ffffff"
     bordercolor="#666666"
     borderopacity="1"
     objecttolerance="10"
     gridtolerance="10"
     guidetolerance="10"
     inkscape:pageopacity="0"
     inkscape:pageshadow="2"
     inkscape:window-width="1920"
     inkscape:window-height="1017"
     id="namedview35"
     showgrid="false"
     fit-margin-top="0"
     fit-margin-left="0"
     fit-margin-right="0"
     fit-margin-bottom="0"
     inkscape:zoom="0.4609375"
     inkscape:cx="256"
     inkscape:cy="255.99943"
     inkscape:window-x="-8"
     inkscape:window-y="-8"
     inkscape:window-maximized="1"
     inkscape:current-layer="Capa_1" /><path
     d="M 4.8340907,2.4170462 C 4.8340907,1.0843312 3.7497602,0 2.4170454,0 1.0843305,0 0,1.0843312 0,2.4170462 0,3.1209769 0.30270197,3.7554728 0.78452897,4.1975733 l -0.002286,0.00198 0.0784002,0.066097 c 0.005098,0.00432 0.0106346,0.00774 0.0157323,0.01206 0.041661,0.034543 0.0848162,0.067321 0.12876253,0.099056 0.014238,0.01026 0.028477,0.020574 0.04298,0.030583 0.046935,0.032347 0.0951,0.063019 0.1443196,0.092108 0.010723,0.0063 0.021534,0.01242 0.032344,0.01863 0.053878,0.030673 0.1088989,0.059581 0.165238,0.086132 0.00413,0.00198 0.00835,0.00378 0.012482,0.00558 0.1836075,0.08534 0.3796079,0.1480172 0.5845733,0.1850152 0.00536,9.667e-4 0.010728,0.00198 0.016164,0.00288 0.063635,0.01098 0.127972,0.019782 0.1930999,0.025669 0.0079,7.02e-4 0.015822,0.00114 0.023818,0.0018 0.064864,0.0054 0.1304326,0.00882 0.1968793,0.00882 0.065831,0 0.1307837,-0.00342 0.1952973,-0.00864 0.00817,-7.038e-4 0.016344,-0.00114 0.024522,-0.0018 0.064602,-0.00594 0.1284112,-0.0144 0.1914301,-0.025219 0.00545,-9.666e-4 0.01098,-0.00198 0.016434,-0.00306 0.2018894,-0.036217 0.3950772,-0.097472 0.5763116,-0.1806195 0.00668,-0.00306 0.013446,-0.00594 0.020128,-0.00918 C 3.4953891,4.579976 3.5483874,4.552472 3.600333,4.523203 3.613257,4.515823 3.626086,4.508443 3.638919,4.500973 3.686206,4.473108 3.732701,4.44402 3.7778767,4.413077 c 0.016254,-0.01116 0.032168,-0.022771 0.048254,-0.034363 0.038586,-0.027775 0.076466,-0.056431 0.1132927,-0.086402 0.00817,-0.00666 0.016956,-0.01224 0.024961,-0.01908 l 0.080422,-0.067141 -0.00238,-0.00198 C 4.5284762,3.761836 4.8340787,3.1244384 4.8340787,2.416904 Z m -4.65830559,0 c 0,-1.2358585 1.00540299,-2.2412616 2.24126029,-2.2412616 1.2358572,0 2.2412601,1.0054031 2.2412601,2.2412616 0,0.6659607 -0.2922427,1.2646844 -0.7549092,1.6754948 C 3.8775563,4.074721 3.8515393,4.0587 3.8249073,4.045344 L 3.0807221,3.6732938 C 3.0139244,3.6398851 2.9724389,3.5727436 2.9724389,3.498114 l 0,-0.2598969 c 0.017226,-0.021276 0.035421,-0.045361 0.05423,-0.071804 C 3.1229996,3.0303485 3.2002555,2.8790048 3.2565955,2.7161408 3.3679549,2.6632196 3.4398516,2.5523012 3.4398516,2.4270617 l 0,-0.3115797 c 0,-0.076196 -0.027949,-0.1501233 -0.077961,-0.2082177 l 0,-0.4101931 C 3.3664606,1.4513682 3.3826346,1.1940166 3.1963895,0.9816677 3.034404,0.7967425 2.7722199,0.7031368 2.4170462,0.7031368 c -0.3551739,0 -0.6173573,0.093602 -0.7793433,0.2784445 C 1.4514586,1.1939284 1.4676308,1.4514546 1.4722011,1.496983 l 0,0.4101948 c -0.049923,0.058087 -0.077961,0.1320149 -0.077961,0.208216 l 0,0.3115797 c 0,0.09677 0.043419,0.1870349 0.1177761,0.2479446 0.071193,0.2788837 0.2177098,0.4900014 0.2718516,0.5615457 l 0,0.2543618 c 0,0.071714 -0.039112,0.137631 -0.1021311,0.1720838 L 0.98677013,4.0419905 c -0.022149,0.01206 -0.044122,0.026101 -0.0660951,0.041833 C 0.46372114,3.6732056 0.17578511,3.0781738 0.17578511,2.4170462 Z"
     id="path3"
     inkscape:connector-curvature="0"
     style="fill:#ffffff" /><g
     id="g5"
     transform="translate(0,-50.165957)" /><g
     id="g7"
     transform="translate(0,-50.165957)" /><g
     id="g9"
     transform="translate(0,-50.165957)" /><g
     id="g11"
     transform="translate(0,-50.165957)" /><g
     id="g13"
     transform="translate(0,-50.165957)" /><g
     id="g15"
     transform="translate(0,-50.165957)" /><g
     id="g17"
     transform="translate(0,-50.165957)" /><g
     id="g19"
     transform="translate(0,-50.165957)" /><g
     id="g21"
     transform="translate(0,-50.165957)" /><g
     id="g23"
     transform="translate(0,-50.165957)" /><g
     id="g25"
     transform="translate(0,-50.165957)" /><g
     id="g27"
     transform="translate(0,-50.165957)" /><g
     id="g29"
     transform="translate(0,-50.165957)" /><g
     id="g31"
     transform="translate(0,-50.165957)" /><g
     id="g33"
     transform="translate(0,-50.165957)" /></svg>