<?xml version="1.0" encoding="UTF-8" standalone="no"?>
<!-- Generator: Adobe Illustrator 19.0.0, SVG Export Plug-In . SVG Version: 6.00 Build 0)  -->

<svg
   xmlns:dc="http://purl.org/dc/elements/1.1/"
   xmlns:cc="http://creativecommons.org/ns#"
   xmlns:rdf="http://www.w3.org/1999/02/22-rdf-syntax-ns#"
   xmlns:svg="http://www.w3.org/2000/svg"
   xmlns="http://www.w3.org/2000/svg"
   xmlns:sodipodi="http://sodipodi.sourceforge.net/DTD/sodipodi-0.dtd"
   xmlns:inkscape="http://www.inkscape.org/namespaces/inkscape"
   version="1.1"
   id="Capa_1"
   x="0px"
   y="0px"
   viewBox="0 0 48.529042 45.000999"
   xml:space="preserve"
   inkscape:version="0.91 r13725"
   sodipodi:docname="map.svg"
   width="48.529041"
   height="45.000999"><metadata
     id="metadata39"><rdf:RDF><cc:Work
         rdf:about=""><dc:format>image/svg+xml</dc:format><dc:type
           rdf:resource="http://purl.org/dc/dcmitype/StillImage" /><dc:title></dc:title></cc:Work></rdf:RDF></metadata><defs
     id="defs37" /><sodipodi:namedview
     pagecolor="#ffffff"
     bordercolor="#666666"
     borderopacity="1"
     objecttolerance="10"
     gridtolerance="10"
     guidetolerance="10"
     inkscape:pageopacity="0"
     inkscape:pageshadow="2"
     inkscape:window-width="1920"
     inkscape:window-height="1017"
     id="namedview35"
     showgrid="false"
     fit-margin-top="0"
     fit-margin-left="0"
     fit-margin-right="0"
     fit-margin-bottom="0"
     inkscape:zoom="4.2909091"
     inkscape:cx="27.5"
     inkscape:cy="25.501004"
     inkscape:window-x="-8"
     inkscape:window-y="-8"
     inkscape:window-maximized="1"
     inkscape:current-layer="Capa_1" /><path
     d="m 48.161997,0.16720381 c -0.230293,-0.165887 -0.52676,-0.212641 -0.794995,-0.120889 L 31.723001,5.2609818 16.96664,1.7889478 c -0.03706,-0.0088 -0.07323,0.0036 -0.110295,0 -0.09441,-0.0097 -0.188821,-0.02205 -0.283233,-0.0018 L 0.69087657,5.3165698 C 0.28764494,5.4065778 0,5.7639298 0,6.1777488 L 0,44.118644 c 0,0.268233 0.1217638,0.520584 0.33087991,0.688232 0.15793995,0.127053 0.35293857,0.194124 0.55146651,0.194124 0.0635291,0 0.12794018,-0.0069 0.19146918,-0.02025 l 15.7119424,-3.491445 14.825186,2.616159 c 0.05118,0.0097 0.102349,0.01418 0.153535,0.01418 0.10676,0 0.211764,-0.02115 0.310588,-0.05823 0.0027,-8.82e-4 0.0061,0 0.0088,-0.0018 l 15.882235,-6.176426 c 0.339704,-0.133241 0.562939,-0.459702 0.562939,-0.823229 l 0,-36.17620219 c 0,-0.284116 -0.135874,-0.549703 -0.367057,-0.716466 z M 1.7646929,6.8845078 l 14.1175421,-3.13674 0,36.1329682 -14.1175421,3.137622 0,-36.1338502 z m 15.8822361,-3.122625 13.235195,3.113801 0,35.3079742 -13.235195,-2.334687 0,-36.0870882 z m 29.117432,32.6944672 -14.117545,5.489958 0,-35.1332692 14.117545,-4.705555 0,34.3488662 z"
     id="path3"
     inkscape:connector-curvature="0" /><g
     id="g5"
     transform="translate(0,-8.0000042)" /><g
     id="g7"
     transform="translate(0,-8.0000042)" /><g
     id="g9"
     transform="translate(0,-8.0000042)" /><g
     id="g11"
     transform="translate(0,-8.0000042)" /><g
     id="g13"
     transform="translate(0,-8.0000042)" /><g
     id="g15"
     transform="translate(0,-8.0000042)" /><g
     id="g17"
     transform="translate(0,-8.0000042)" /><g
     id="g19"
     transform="translate(0,-8.0000042)" /><g
     id="g21"
     transform="translate(0,-8.0000042)" /><g
     id="g23"
     transform="translate(0,-8.0000042)" /><g
     id="g25"
     transform="translate(0,-8.0000042)" /><g
     id="g27"
     transform="translate(0,-8.0000042)" /><g
     id="g29"
     transform="translate(0,-8.0000042)" /><g
     id="g31"
     transform="translate(0,-8.0000042)" /><g
     id="g33"
     transform="translate(0,-8.0000042)" /></svg>