<?xml version="1.0" encoding="UTF-8" standalone="no"?>
<!-- Generator: Adobe Illustrator 19.0.0, SVG Export Plug-In . SVG Version: 6.00 Build 0)  -->

<svg
   xmlns:dc="http://purl.org/dc/elements/1.1/"
   xmlns:cc="http://creativecommons.org/ns#"
   xmlns:rdf="http://www.w3.org/1999/02/22-rdf-syntax-ns#"
   xmlns:svg="http://www.w3.org/2000/svg"
   xmlns="http://www.w3.org/2000/svg"
   xmlns:sodipodi="http://sodipodi.sourceforge.net/DTD/sodipodi-0.dtd"
   xmlns:inkscape="http://www.inkscape.org/namespaces/inkscape"
   version="1.1"
   id="Capa_1"
   x="0px"
   y="0px"
   viewBox="0 0 13.982375 20"
   xml:space="preserve"
   inkscape:version="0.91 r13725"
   sodipodi:docname="placeholder.svg"
   width="13.982375"
   height="20"><metadata
     id="metadata39"><rdf:RDF><cc:Work
         rdf:about=""><dc:format>image/svg+xml</dc:format><dc:type
           rdf:resource="http://purl.org/dc/dcmitype/StillImage" /><dc:title></dc:title></cc:Work></rdf:RDF></metadata><defs
     id="defs37" /><sodipodi:namedview
     pagecolor="#ffffff"
     bordercolor="#666666"
     borderopacity="1"
     objecttolerance="10"
     gridtolerance="10"
     guidetolerance="10"
     inkscape:pageopacity="0"
     inkscape:pageshadow="2"
     inkscape:window-width="1920"
     inkscape:window-height="1017"
     id="namedview35"
     showgrid="false"
     inkscape:zoom="4.5384615"
     inkscape:cx="18.176913"
     inkscape:cy="25.999999"
     inkscape:window-x="-8"
     inkscape:window-y="-8"
     inkscape:window-maximized="1"
     inkscape:current-layer="Capa_1"
     fit-margin-top="0"
     fit-margin-left="0"
     fit-margin-right="0"
     fit-margin-bottom="0" /><path
     style="fill:#ff0000"
     d="m 11.934697,2.0475196 0,0 c -2.7300266,-2.73002613 -7.1566079,-2.73002613 -9.8870185,0 l 0,0 C -0.41234524,4.5075434 -0.689271,9.139512 1.3984414,11.922999 L 6.9911879,20 12.583934,11.922999 C 14.671646,9.139512 14.394721,4.5075434 11.934697,2.0475196 Z M 7.0592654,9.230665 c -1.2746283,0 -2.3077147,-1.0330859 -2.3077147,-2.3077132 0,-1.2746283 1.0330864,-2.3077147 2.3077147,-2.3077147 1.2746274,0 2.3077146,1.0330864 2.3077146,2.3077147 0,1.2746273 -1.0330872,2.3077132 -2.3077146,2.3077132 z"
     id="path3"
     inkscape:connector-curvature="0" /><g
     id="g5"
     transform="translate(-7.8230873,-32)" /><g
     id="g7"
     transform="translate(-7.8230873,-32)" /><g
     id="g9"
     transform="translate(-7.8230873,-32)" /><g
     id="g11"
     transform="translate(-7.8230873,-32)" /><g
     id="g13"
     transform="translate(-7.8230873,-32)" /><g
     id="g15"
     transform="translate(-7.8230873,-32)" /><g
     id="g17"
     transform="translate(-7.8230873,-32)" /><g
     id="g19"
     transform="translate(-7.8230873,-32)" /><g
     id="g21"
     transform="translate(-7.8230873,-32)" /><g
     id="g23"
     transform="translate(-7.8230873,-32)" /><g
     id="g25"
     transform="translate(-7.8230873,-32)" /><g
     id="g27"
     transform="translate(-7.8230873,-32)" /><g
     id="g29"
     transform="translate(-7.8230873,-32)" /><g
     id="g31"
     transform="translate(-7.8230873,-32)" /><g
     id="g33"
     transform="translate(-7.8230873,-32)" /></svg>