<?xml version="1.0" encoding="UTF-8" standalone="no"?>
<!-- Generator: Adobe Illustrator 19.0.0, SVG Export Plug-In . SVG Version: 6.00 Build 0)  -->

<svg
   xmlns:dc="http://purl.org/dc/elements/1.1/"
   xmlns:cc="http://creativecommons.org/ns#"
   xmlns:rdf="http://www.w3.org/1999/02/22-rdf-syntax-ns#"
   xmlns:svg="http://www.w3.org/2000/svg"
   xmlns="http://www.w3.org/2000/svg"
   xmlns:sodipodi="http://sodipodi.sourceforge.net/DTD/sodipodi-0.dtd"
   xmlns:inkscape="http://www.inkscape.org/namespaces/inkscape"
   version="1.1"
   id="Layer_1"
   x="0px"
   y="0px"
   viewBox="0 0 57.165451 50.045002"
   xml:space="preserve"
   width="57.165451"
   height="50.045002"
   inkscape:version="0.91 r13725"
   sodipodi:docname="recipe.svg"><metadata
     id="metadata67"><rdf:RDF><cc:Work
         rdf:about=""><dc:format>image/svg+xml</dc:format><dc:type
           rdf:resource="http://purl.org/dc/dcmitype/StillImage" /><dc:title></dc:title></cc:Work></rdf:RDF></metadata><defs
     id="defs65" /><sodipodi:namedview
     pagecolor="#ffffff"
     bordercolor="#666666"
     borderopacity="1"
     objecttolerance="10"
     gridtolerance="10"
     guidetolerance="10"
     inkscape:pageopacity="0"
     inkscape:pageshadow="2"
     inkscape:window-width="1920"
     inkscape:window-height="1017"
     id="namedview63"
     showgrid="false"
     fit-margin-top="0"
     fit-margin-left="0"
     fit-margin-right="0"
     fit-margin-bottom="0"
     inkscape:zoom="0.4609375"
     inkscape:cx="48.988518"
     inkscape:cy="224.1128"
     inkscape:window-x="-8"
     inkscape:window-y="-8"
     inkscape:window-maximized="1"
     inkscape:current-layer="Layer_1" /><g
     id="g3"
     transform="matrix(0.11165127,0,0,0.11165127,0,-3.560224)"><g
       id="g5"><path
         d="m 409.285,207.265 c -9.62,0.001 -17.447,7.827 -17.447,17.447 l 0,35.684 c 0,9.62 7.828,17.446 17.449,17.447 9.619,-0.001 17.446,-7.827 17.446,-17.447 l 10e-4,-35.686 c 0,-9.616 -7.829,-17.444 -17.449,-17.445 z"
         id="path7"
         inkscape:connector-curvature="0"
         style="fill:#ffffff" /></g></g><g
     id="g9"
     transform="matrix(0.11165127,0,0,0.11165127,0,-3.560224)"><g
       id="g11"><path
         d="m 306.574,151.956 0,323.68 L 512,437.233 512,113.519 306.574,151.956 Z m 150.577,108.441 c 0,21.075 -13.698,39 -32.655,45.372 l 0,108.558 -30.417,0 0,-108.558 c -18.957,-6.371 -32.657,-24.297 -32.658,-45.372 l 0,-35.685 c 0,-26.391 21.471,-47.863 47.864,-47.864 26.39,10e-4 47.862,21.472 47.866,47.86 l 0,35.689 z"
         id="path13"
         inkscape:connector-curvature="0"
         style="fill:#ffffff" /></g></g><g
     id="g15"
     transform="matrix(0.11165127,0,0,0.11165127,0,-3.560224)"><g
       id="g17"><rect
         x="235.845"
         y="156.43401"
         width="40.313"
         height="323.67899"
         id="rect19"
         style="fill:#ffffff" /></g></g><g
     id="g21"
     transform="matrix(0.11165127,0,0,0.11165127,0,-3.560224)"><g
       id="g23"><path
         d="M 473.751,31.887 297.38,74.601 C 278.98,78.814 265.422,85.968 256,96.442 246.578,85.967 233.019,78.814 214.619,74.6 L 38.249,31.887 7.524,84.012 l 224.659,42.005 47.632,0 L 504.46,83.985 473.751,31.887 Z"
         id="path25"
         inkscape:connector-curvature="0"
         style="fill:#ffffff" /></g></g><g
     id="g27"
     transform="matrix(0.11165127,0,0,0.11165127,0,-3.560224)"><g
       id="g29"><path
         d="m 0,113.549 0,323.683 205.426,38.403 0,-323.677 L 0,113.549 Z M 166.365,235.03 c 0,18.581 -6.096,34.497 -17.627,46.027 -8.24,8.239 -18.729,13.686 -30.82,16.133 l 0,117.136 -30.417,0 0,-117.136 C 75.412,294.742 64.925,289.296 56.685,281.057 45.152,269.526 39.057,253.61 39.058,235.029 l 0,-53.108 30.417,0 0,53.108 c 0,10.338 3.013,18.816 8.716,24.519 2.567,2.566 5.701,4.584 9.309,6.031 l 0,-83.662 30.417,0 0,83.664 c 3.609,-1.448 6.744,-3.465 9.312,-6.032 5.703,-5.702 8.718,-14.18 8.718,-24.519 l 0.001,-53.113 30.417,0 0,53.113 z"
         id="path31"
         inkscape:connector-curvature="0"
         style="fill:#ffffff" /></g></g><g
     id="g33"
     transform="translate(0,-430.0678)" /><g
     id="g35"
     transform="translate(0,-430.0678)" /><g
     id="g37"
     transform="translate(0,-430.0678)" /><g
     id="g39"
     transform="translate(0,-430.0678)" /><g
     id="g41"
     transform="translate(0,-430.0678)" /><g
     id="g43"
     transform="translate(0,-430.0678)" /><g
     id="g45"
     transform="translate(0,-430.0678)" /><g
     id="g47"
     transform="translate(0,-430.0678)" /><g
     id="g49"
     transform="translate(0,-430.0678)" /><g
     id="g51"
     transform="translate(0,-430.0678)" /><g
     id="g53"
     transform="translate(0,-430.0678)" /><g
     id="g55"
     transform="translate(0,-430.0678)" /><g
     id="g57"
     transform="translate(0,-430.0678)" /><g
     id="g59"
     transform="translate(0,-430.0678)" /><g
     id="g61"
     transform="translate(0,-430.0678)" /></svg>