<?xml version="1.0" encoding="UTF-8" standalone="no"?>
<!-- Generator: Adobe Illustrator 18.0.0, SVG Export Plug-In . SVG Version: 6.00 Build 0)  -->

<svg
   xmlns:dc="http://purl.org/dc/elements/1.1/"
   xmlns:cc="http://creativecommons.org/ns#"
   xmlns:rdf="http://www.w3.org/1999/02/22-rdf-syntax-ns#"
   xmlns:svg="http://www.w3.org/2000/svg"
   xmlns="http://www.w3.org/2000/svg"
   xmlns:sodipodi="http://sodipodi.sourceforge.net/DTD/sodipodi-0.dtd"
   xmlns:inkscape="http://www.inkscape.org/namespaces/inkscape"
   version="1.1"
   id="Capa_1"
   x="0px"
   y="0px"
   viewBox="0 0 18.230481 18.23125"
   xml:space="preserve"
   width="49.99789"
   height="50"
   inkscape:version="0.91 r13725"
   sodipodi:docname="scan.svg"><metadata
     id="metadata45"><rdf:RDF><cc:Work
         rdf:about=""><dc:format>image/svg+xml</dc:format><dc:type
           rdf:resource="http://purl.org/dc/dcmitype/StillImage" /><dc:title></dc:title></cc:Work></rdf:RDF></metadata><defs
     id="defs43" /><sodipodi:namedview
     pagecolor="#ffffff"
     bordercolor="#666666"
     borderopacity="1"
     objecttolerance="10"
     gridtolerance="10"
     guidetolerance="10"
     inkscape:pageopacity="0"
     inkscape:pageshadow="2"
     inkscape:window-width="1920"
     inkscape:window-height="1017"
     id="namedview41"
     showgrid="false"
     fit-margin-top="0"
     fit-margin-left="0"
     fit-margin-right="0"
     fit-margin-bottom="0"
     inkscape:zoom="0.4609375"
     inkscape:cx="255.9904"
     inkscape:cy="256"
     inkscape:window-x="-8"
     inkscape:window-y="-8"
     inkscape:window-maximized="1"
     inkscape:current-layer="Capa_1" /><g
     id="g3"
     transform="matrix(0.09765625,0,0,0.09765625,-3.4179687e-4,0)"><path
       d="m 90.089,30.9 c -16.315,-16.316 -42.867,-16.317 -59.185,0 -2.421,2.42 -4.537,5.124 -6.289,8.036 -1.14,1.893 -0.529,4.351 1.364,5.49 1.894,1.14 4.352,0.529 5.489,-1.364 1.418,-2.355 3.131,-4.543 5.092,-6.504 13.2,-13.198 34.674,-13.197 47.872,0 5.787,5.787 9.28,13.466 9.835,21.621 0.145,2.112 1.901,3.729 3.987,3.729 0.091,0 0.184,-0.003 0.275,-0.009 2.204,-0.15 3.869,-2.059 3.72,-4.262 C 101.563,47.55 97.245,38.055 90.089,30.9 Z"
       id="path5"
       inkscape:connector-curvature="0"
       style="fill:#ffffff" /><path
       d="m 84.433,84.427 c -13.199,13.199 -34.673,13.198 -47.872,0 -1.561,-1.562 -4.096,-1.562 -5.656,0 -1.563,1.563 -1.563,4.095 0,5.657 8.158,8.159 18.875,12.238 29.593,12.238 10.717,0 21.434,-4.079 29.592,-12.238 1.563,-1.563 1.563,-4.095 0,-5.657 -1.561,-1.561 -4.096,-1.561 -5.657,0 z"
       id="path7"
       inkscape:connector-curvature="0"
       style="fill:#ffffff" /><path
       d="M 181.201,154.681 114.437,87.917 c 11.531,-22.721 7.825,-51.25 -11.146,-70.22 -23.596,-23.597 -61.993,-23.595 -85.589,0 -23.598,23.597 -23.598,61.993 0,85.59 11.798,11.798 27.296,17.698 42.795,17.698 9.42,0 18.835,-2.193 27.425,-6.552 l 66.763,66.763 c 3.541,3.542 8.25,5.492 13.258,5.492 5.009,0 9.718,-1.951 13.259,-5.492 7.309,-7.31 7.309,-19.205 -0.001,-26.515 z M 26.187,94.802 c -18.918,-18.918 -18.918,-49.701 0,-68.619 9.46,-9.459 21.885,-14.189 34.31,-14.189 12.426,0 24.851,4.729 34.311,14.189 18.918,18.918 18.918,49.701 0,68.619 -18.921,18.918 -49.701,18.919 -68.621,0 z m 72.059,12.985 c 1.743,-1.393 3.431,-2.886 5.045,-4.5 1.614,-1.614 3.107,-3.303 4.5,-5.046 l 4.535,4.535 -9.545,9.546 -4.535,-4.535 z m 74.469,64.924 c -1.274,1.275 -2.969,1.977 -4.772,1.977 -1.803,0 -3.497,-0.702 -4.772,-1.977 l -54.732,-54.732 9.545,-9.546 54.731,54.732 c 2.632,2.632 2.632,6.914 0,9.546 z"
       id="path9"
       inkscape:connector-curvature="0"
       style="fill:#ffffff" /></g><g
     id="g11"
     transform="translate(-0.0035,-168.45675)" /><g
     id="g13"
     transform="translate(-0.0035,-168.45675)" /><g
     id="g15"
     transform="translate(-0.0035,-168.45675)" /><g
     id="g17"
     transform="translate(-0.0035,-168.45675)" /><g
     id="g19"
     transform="translate(-0.0035,-168.45675)" /><g
     id="g21"
     transform="translate(-0.0035,-168.45675)" /><g
     id="g23"
     transform="translate(-0.0035,-168.45675)" /><g
     id="g25"
     transform="translate(-0.0035,-168.45675)" /><g
     id="g27"
     transform="translate(-0.0035,-168.45675)" /><g
     id="g29"
     transform="translate(-0.0035,-168.45675)" /><g
     id="g31"
     transform="translate(-0.0035,-168.45675)" /><g
     id="g33"
     transform="translate(-0.0035,-168.45675)" /><g
     id="g35"
     transform="translate(-0.0035,-168.45675)" /><g
     id="g37"
     transform="translate(-0.0035,-168.45675)" /><g
     id="g39"
     transform="translate(-0.0035,-168.45675)" /></svg>