<?xml version="1.0" encoding="UTF-8" standalone="no"?>
<!-- Generator: Adobe Illustrator 19.0.0, SVG Export Plug-In . SVG Version: 6.00 Build 0)  -->

<svg
   xmlns:dc="http://purl.org/dc/elements/1.1/"
   xmlns:cc="http://creativecommons.org/ns#"
   xmlns:rdf="http://www.w3.org/1999/02/22-rdf-syntax-ns#"
   xmlns:svg="http://www.w3.org/2000/svg"
   xmlns="http://www.w3.org/2000/svg"
   xmlns:sodipodi="http://sodipodi.sourceforge.net/DTD/sodipodi-0.dtd"
   xmlns:inkscape="http://www.inkscape.org/namespaces/inkscape"
   version="1.1"
   id="Capa_1"
   x="0px"
   y="0px"
   viewBox="0 0 47.988377 47.919918"
   xml:space="preserve"
   width="50.071426"
   height="49.999996"
   inkscape:version="0.91 r13725"
   sodipodi:docname="shop.svg"><metadata
     id="metadata77"><rdf:RDF><cc:Work
         rdf:about=""><dc:format>image/svg+xml</dc:format><dc:type
           rdf:resource="http://purl.org/dc/dcmitype/StillImage" /><dc:title></dc:title></cc:Work></rdf:RDF></metadata><defs
     id="defs75" /><sodipodi:namedview
     pagecolor="#ffffff"
     bordercolor="#666666"
     borderopacity="1"
     objecttolerance="10"
     gridtolerance="10"
     guidetolerance="10"
     inkscape:pageopacity="0"
     inkscape:pageshadow="2"
     inkscape:window-width="1920"
     inkscape:window-height="1017"
     id="namedview73"
     showgrid="false"
     fit-margin-top="0"
     fit-margin-left="0"
     fit-margin-right="0"
     fit-margin-bottom="0"
     inkscape:zoom="0.4609375"
     inkscape:cx="256"
     inkscape:cy="255.63478"
     inkscape:window-x="-8"
     inkscape:window-y="-8"
     inkscape:window-maximized="1"
     inkscape:current-layer="Capa_1" /><g
     id="g3"
     transform="matrix(0.09779576,0,0,0.09779576,0,-0.03422852)"><g
       id="g5"><g
         id="g7"><polygon
           points="264,0.35 226.6,0.35 217.7,98.35 272.9,98.35 "
           id="polygon9"
           style="fill:#ffffff" /><polygon
           points="343.3,98.35 316.9,0.35 279.9,0.35 288.5,98.35 "
           id="polygon11"
           style="fill:#ffffff" /><path
           d="m 245.3,184.65 c 15.6,0 28.4,-12.8 28.4,-28.4 l 0,-42.4 -56.8,0 0,42.4 c 0,15.6 12.9,28.4 28.4,28.4 z"
           id="path13"
           inkscape:connector-curvature="0"
           style="fill:#ffffff" /><polygon
           points="431.2,98.35 483.7,98.35 421.5,0.35 386.5,0.35 "
           id="polygon15"
           style="fill:#ffffff" /><polygon
           points="202.1,98.35 210.7,0.35 173.8,0.35 147.3,98.35 "
           id="polygon17"
           style="fill:#ffffff" /><path
           d="m 289.2,156.25 c 0,15.6 12.8,28.4 28.4,28.4 15.6,0 28.4,-12.8 28.4,-28.4 l 0,-42.4 -56.8,0 0,42.4 z"
           id="path19"
           inkscape:connector-curvature="0"
           style="fill:#ffffff" /><polygon
           points="359.6,98.35 413.7,98.35 369.4,0.35 333.2,0.35 "
           id="polygon21"
           style="fill:#ffffff" /><path
           d="m 361.6,156.25 c 0,15.6 12.8,28.4 28.4,28.4 15.6,0 28.4,-12.8 28.4,-28.4 l 0,-42.4 -56.8,0 0,42.4 z"
           id="path23"
           inkscape:connector-curvature="0"
           style="fill:#ffffff" /><polygon
           points="104.1,0.35 69.1,0.35 6.9,98.35 59.4,98.35 "
           id="polygon25"
           style="fill:#ffffff" /><path
           d="m 433.9,113.95 0,42.4 c 0,15.6 12.8,28.4 28.4,28.4 15.6,0 28.4,-12.8 28.4,-28.4 l 0,-42.4 -56.8,0 z"
           id="path27"
           inkscape:connector-curvature="0"
           style="fill:#ffffff" /><polygon
           points="76.9,98.35 131,98.35 157.4,0.35 121.3,0.35 "
           id="polygon29"
           style="fill:#ffffff" /><path
           d="m 145,156.25 c 0,15.6 12.8,28.4 28.4,28.4 15.6,0 28.4,-12.8 28.4,-28.4 l 0,-42.4 -56.8,0 0,42.4 0,0 z"
           id="path31"
           inkscape:connector-curvature="0"
           style="fill:#ffffff" /><path
           d="m 28.7,184.65 c 15.6,0 28.4,-12.8 28.4,-28.4 l 0,-42.4 -56.8,0 0,42.4 c 0,15.6 12.8,28.4 28.4,28.4 z"
           id="path33"
           inkscape:connector-curvature="0"
           style="fill:#ffffff" /><path
           d="m 129,156.45 0,-42.6 -56.4,0 0,42.6 c 0,15.6 12.6,28.2 28.2,28.2 l 0,0 c 15.6,0 28.2,-12.6 28.2,-28.2 z"
           id="path35"
           inkscape:connector-curvature="0"
           style="fill:#ffffff" /><path
           d="m 271.7,305.25 25.7,-25.7 c 3.1,-3.1 3.1,-8.2 0,-11.3 -3.1,-3.1 -8.2,-3.1 -11.3,0 l -25.3,25.7 c -3.1,3.1 -3.1,8.2 0,11.3 1.6,1.5 6.1,4.3 10.9,0 z"
           id="path37"
           inkscape:connector-curvature="0"
           style="fill:#ffffff" /><path
           d="m 273.7,349.55 c 1.6,1.6 6.1,4.3 10.9,0 l 58.3,-57.2 c 3.1,-3.1 3.1,-8.2 0,-11.3 -3.1,-3.1 -8.2,-3.1 -11.3,0 l -58.3,57.2 c -2.7,3.2 -2.7,8.2 0.4,11.3 z"
           id="path39"
           inkscape:connector-curvature="0"
           style="fill:#ffffff" /><path
           d="m 426.1,181.55 c -7.8,11.3 -21,19.1 -36.2,19.1 -14.8,0 -28,-7.4 -36.2,-19.1 -7.8,11.3 -21,19.1 -36.2,19.1 -14.8,0 -28,-7.4 -36.2,-19.1 -7.8,11.3 -21,19.1 -36.2,19.1 -15.2,0 -28,-7.4 -36.2,-19.1 -7.8,11.3 -21,19.1 -36.2,19.1 -14.8,0 -27.6,-7.4 -35.8,-18.3 -15,21 -37.7,18.3 -37.7,18.3 -14.4,0 -27.2,-7.4 -35,-18.3 -8.2,11.3 -21,18.3 -35.8,18.3 -10.9,0 -20.6,-3.9 -28.4,-10.1 l 0,299.8 35.8,0 0,-249.3 160.2,0 0,249.3 294,0 0,-300.2 c -7.8,6.2 -17.5,10.1 -28.4,10.1 -14.5,0 -27.7,-7.4 -35.5,-18.7 z m 35,216.6 -228.2,0 0,-157.1 228.3,0 0,157.1 -0.1,0 z"
           id="path41"
           inkscape:connector-curvature="0"
           style="fill:#ffffff" /></g></g></g><g
     id="g43"
     transform="translate(0,-442.43007)" /><g
     id="g45"
     transform="translate(0,-442.43007)" /><g
     id="g47"
     transform="translate(0,-442.43007)" /><g
     id="g49"
     transform="translate(0,-442.43007)" /><g
     id="g51"
     transform="translate(0,-442.43007)" /><g
     id="g53"
     transform="translate(0,-442.43007)" /><g
     id="g55"
     transform="translate(0,-442.43007)" /><g
     id="g57"
     transform="translate(0,-442.43007)" /><g
     id="g59"
     transform="translate(0,-442.43007)" /><g
     id="g61"
     transform="translate(0,-442.43007)" /><g
     id="g63"
     transform="translate(0,-442.43007)" /><g
     id="g65"
     transform="translate(0,-442.43007)" /><g
     id="g67"
     transform="translate(0,-442.43007)" /><g
     id="g69"
     transform="translate(0,-442.43007)" /><g
     id="g71"
     transform="translate(0,-442.43007)" /></svg>